<?xml version="1.0" encoding="UTF-8" standalone="no"?>
<!-- Created with Inkscape (http://www.inkscape.org/) -->

<svg
   width="56.610622mm"
   height="16.698847mm"
   viewBox="0 0 56.610622 16.698847"
   version="1.1"
   id="svg1"
   inkscape:export-filename="splash.svg"
   inkscape:export-xdpi="96"
   inkscape:export-ydpi="96"
   sodipodi:docname="splash.svg"
   xmlns:inkscape="http://www.inkscape.org/namespaces/inkscape"
   xmlns:sodipodi="http://sodipodi.sourceforge.net/DTD/sodipodi-0.dtd"
   xmlns="http://www.w3.org/2000/svg"
   xmlns:svg="http://www.w3.org/2000/svg">
  <sodipodi:namedview
     id="namedview1"
     pagecolor="#ffffff"
     bordercolor="#000000"
     borderopacity="0.25"
     inkscape:showpageshadow="2"
     inkscape:pageopacity="0.0"
     inkscape:pagecheckerboard="0"
     inkscape:deskcolor="#d1d1d1"
     inkscape:document-units="mm"
     showguides="true"
     inkscape:zoom="4.3366723"
     inkscape:cx="384.8573"
     inkscape:cy="270.59919"
     inkscape:window-width="2560"
     inkscape:window-height="1494"
     inkscape:window-x="-11"
     inkscape:window-y="-11"
     inkscape:window-maximized="1"
     inkscape:current-layer="g3" />
  <defs
     id="defs1" />
  <g
     inkscape:label="Layer 1"
     inkscape:groupmode="layer"
     id="layer1"
     transform="translate(-75.005833,-62.977244)">
    <g
       id="g3"
       transform="translate(26.137167,25.121474)">
      <path
         d="m 57.952619,49.199108 h -1.041642 v -3.573991 q 0,-0.2824 0.06481,-0.787018 l -0.935163,3.698988 h -0.550913 l -0.939793,-3.698988 q 0.06481,0.513877 0.06481,0.787018 v 3.573991 h -1.041642 v -7.245201 h 1.023124 l 1.138862,4.004536 q 0.01852,0.06481 0.02778,0.328696 0,-0.115738 0.02778,-0.328696 l 1.138863,-4.004536 h 1.023124 z m 3.823985,0 h -1.013865 v -0.162033 q -0.361103,0.05555 -0.722206,0.111108 -0.472211,0.06944 -0.717576,0.06944 -0.57869,0 -0.57869,-0.569431 v -1.685146 q 0,-0.57869 0.597208,-0.57869 h 1.430523 V 45.31031 h -1.013866 v 0.666651 h -0.958311 v -0.87498 q 0,-0.57869 0.597209,-0.57869 h 1.791625 q 0.587949,0 0.587949,0.57869 z m -1.004606,-0.842573 v -1.2546 h -1.013866 v 1.291636 z m 3.782318,0.842573 h -1.175898 q -0.587949,0 -0.587949,-0.57869 v -3.19437 H 62.29048 v -0.902757 h 0.499989 V 43.254802 H 63.846 v 1.268489 h 0.680539 v 0.902757 H 63.846 v 2.870303 h 0.708316 z m 2.606422,0 h -1.175899 q -0.587949,0 -0.587949,-0.57869 v -3.19437 h -0.499988 v -0.902757 h 0.499988 v -1.268489 h 1.055531 v 1.268489 h 0.68054 v 0.902757 h -0.68054 v 2.870303 h 0.708317 z m 3.708247,0 h -1.06479 V 45.40753 l -0.995348,0.01852 v 3.77306 h -1.06016 v -7.245201 h 1.06016 v 2.740677 q 0.370362,-0.05555 0.740724,-0.115738 0.467582,-0.07407 0.740723,-0.07407 0.578691,0 0.578691,0.569431 z m 1.83792,-5.347097 h -1.06016 v -1.092567 h 1.06016 z m -0.0093,5.347097 h -1.041642 v -4.675817 h 1.041642 z m 3.800837,0 h -1.013865 v -0.162033 q -0.361103,0.05555 -0.722206,0.111108 -0.472211,0.06944 -0.717576,0.06944 -0.57869,0 -0.57869,-0.569431 v -1.685146 q 0,-0.57869 0.597208,-0.57869 h 1.430523 V 45.31031 H 74.47997 v 0.666651 H 73.5217 v -0.87498 q 0,-0.57869 0.597209,-0.57869 h 1.791625 q 0.587949,0 0.587949,0.57869 z m -1.004606,-0.842573 v -1.2546 H 74.47997 v 1.291636 z m 4.703593,0.263883 q 0,0.57869 -0.587949,0.57869 h -1.782366 q -0.587949,0 -0.587949,-0.57869 v -1.004606 h 1.013865 v 0.787018 h 0.930534 v -0.740723 l -1.624962,-0.958311 q -0.319437,-0.18981 -0.319437,-0.509247 v -1.092568 q 0,-0.57869 0.597208,-0.57869 h 1.763848 q 0.587949,0 0.587949,0.57869 v 0.939793 H 79.183564 V 45.319569 H 78.25303 v 0.67591 l 1.620333,0.949052 q 0.324066,0.185181 0.324066,0.518507 z m 6.305409,-0.08333 q 0,0.662021 -0.662021,0.662021 h -2.893451 v -7.245201 h 2.874933 q 0.643503,0 0.643503,0.666651 v 1.865697 q 0,0.370362 -0.231476,0.574061 -0.03241,0.02778 -0.564801,0.356473 0.550913,0.337955 0.583319,0.370362 0.249994,0.217587 0.249994,0.597208 z m -1.115714,-3.916576 v -1.754588 h -1.35645 v 2.12495 h 0.833314 z m 0.02778,3.666581 v -2.064766 l -0.532395,-0.351844 h -0.851832 v 2.41661 z m 4.898034,0.912016 h -1.013865 v -0.162033 q -0.361103,0.05555 -0.722206,0.111108 -0.472211,0.06944 -0.717576,0.06944 -0.57869,0 -0.57869,-0.569431 v -1.685146 q 0,-0.57869 0.597209,-0.57869 h 1.43056 V 45.31031 h -1.013865 v 0.666651 h -0.958311 v -0.87498 q 0,-0.57869 0.597208,-0.57869 h 1.791625 q 0.587949,0 0.587949,0.57869 z M 89.30837,48.356535 v -1.2546 h -1.013865 v 1.291636 z m 4.712852,-1.879586 H 92.970321 V 45.40753 l -0.837943,0.01852 v 3.77306 h -1.060161 v -4.675817 h 1.060161 v 0.171293 q 0.328696,-0.06018 0.652762,-0.120368 0.39351,-0.06944 0.657392,-0.06944 0.57869,0 0.57869,0.569431 z m 3.717504,2.722159 h -1.06479 V 45.40753 l -0.995347,0.01852 v 3.77306 h -1.060161 v -4.675817 h 1.060161 v 0.171293 q 0.370362,-0.06018 0.736094,-0.115738 0.453693,-0.07407 0.745353,-0.07407 0.57869,0 0.57869,0.569431 z m 3.782324,-0.57869 q 0,0.57869 -0.59721,0.57869 h -1.828664 q -0.597208,0 -0.597208,-0.57869 v -3.518437 q 0,-0.57869 0.597208,-0.57869 h 1.828664 q 0.59721,0 0.59721,0.57869 v 1.717553 l -0.29166,0.29166 h -1.717557 v 1.310154 h 0.995347 v -0.777759 h 1.01387 z m -1.01387,-2.199023 v -1.120344 h -0.995347 v 1.120344 z m 4.72211,2.199023 q 0,0.57869 -0.58794,0.57869 h -1.78237 q -0.58795,0 -0.58795,-0.57869 v -1.004606 h 1.01387 v 0.787018 h 0.93053 v -0.740723 l -1.62496,-0.958311 q -0.31944,-0.18981 -0.31944,-0.509247 v -1.092568 q 0,-0.57869 0.59721,-0.57869 h 1.76385 q 0.58795,0 0.58795,0.57869 v 0.939793 h -1.00461 v -0.722205 h -0.93053 v 0.67591 l 1.62033,0.949052 q 0.32406,0.185181 0.32406,0.518507 z"
         id="text2"
         style="font-weight:bold;font-stretch:condensed;font-size:9.48126px;font-family:'Agency FB';-inkscape-font-specification:'Agency FB, Bold Condensed';fill:#e6803c;fill-opacity:1;stroke:#2a1111;stroke-width:0.5;stroke-linecap:round;stroke-linejoin:bevel;stroke-opacity:1;paint-order:stroke fill markers"
         aria-label="Matthias Barnes"
         inkscape:export-filename="splash.svg"
         inkscape:export-xdpi="96"
         inkscape:export-ydpi="96" />
      <path
         d="m 77.216931,50.450394 -0.48597,3.325394 H 76.244989 L 75.94789,51.89345 q -0.0042,-0.101858 -0.01697,-0.303465 0,0.101857 -0.01697,0.303465 l -0.294978,1.882338 h -0.4881 l -0.48597,-3.325394 h 0.502947 l 0.256778,1.969347 q 0.0064,0.101857 0.01697,0.303466 0.0021,-0.101857 0.0191,-0.303466 l 0.286489,-1.969347 h 0.407451 l 0.286489,1.969347 q 0.0064,0.101857 0.0191,0.303466 0.0022,-0.101857 0.01697,-0.303466 l 0.256778,-1.969347 z m 1.638292,3.055883 q 0,0.265268 -0.273756,0.265268 h -0.838246 q -0.273755,0 -0.273755,-0.265268 V 51.89345 q 0,-0.265267 0.273755,-0.265267 h 0.838246 q 0.273756,0 0.273756,0.265267 v 0.787314 l -0.133697,0.133697 h -0.787313 v 0.600565 h 0.45626 v -0.35652 h 0.464749 z M 78.390474,52.49826 v -0.513558 h -0.45626 v 0.513558 z m 1.307238,1.273285 h -0.477481 v -3.321151 h 0.477481 z m 1.746522,-0.265268 q 0,0.265268 -0.269512,0.265268 h -0.842489 q -0.273757,0 -0.273757,-0.265268 V 51.89345 q 0,-0.265267 0.273757,-0.265267 h 0.842489 q 0.269512,0 0.269512,0.265267 v 0.509314 h -0.473237 v -0.369252 h -0.435039 v 1.334826 h 0.435039 v -0.409573 h 0.473237 z m 1.761376,0 q 0,0.265268 -0.269511,0.265268 h -0.870078 q -0.273756,0 -0.273756,-0.265268 V 51.89345 q 0,-0.265267 0.273756,-0.265267 h 0.870078 q 0.269511,0 0.269511,0.265267 z m -0.47536,-0.137939 v -1.334826 h -0.460504 v 1.334826 z m 3.189578,0.403207 h -0.481725 v -1.738033 l -0.45626,0.0085 v 1.729545 h -0.483849 v -1.738034 l -0.45626,0.0085 v 1.729545 h -0.48597 v -2.143362 h 0.48597 v 0.07852 q 0.169771,-0.02758 0.33742,-0.05518 0.205848,-0.03183 0.341666,-0.03183 0.167648,0 0.216458,0.09549 0.178259,-0.02758 0.356519,-0.0573 0.235557,-0.0382 0.360764,-0.0382 0.265267,0 0.265267,0.261023 z m 1.733788,-0.265268 q 0,0.265268 -0.273756,0.265268 h -0.838244 q -0.273757,0 -0.273757,-0.265268 V 51.89345 q 0,-0.265267 0.273757,-0.265267 h 0.838244 q 0.273756,0 0.273756,0.265267 v 0.787314 l -0.133697,0.133697 h -0.787314 v 0.600565 h 0.45626 v -0.35652 h 0.464749 z M 87.188868,52.49826 v -0.513558 h -0.45626 v 0.513558 z m 2.637822,1.273285 h -0.539025 q -0.269511,0 -0.269511,-0.265268 V 52.042 h -0.229192 v -0.413817 h 0.229192 v -0.581466 h 0.483848 v 0.581466 h 0.311955 V 52.042 h -0.311955 v 1.315728 h 0.324688 z m 1.682855,-0.265268 q 0,0.265268 -0.269511,0.265268 h -0.870078 q -0.273756,0 -0.273756,-0.265268 V 51.89345 q 0,-0.265267 0.273756,-0.265267 h 0.870078 q 0.269511,0 0.269511,0.265267 z m -0.475358,-0.137939 v -1.334826 h -0.460505 v 1.334826 z m 4.08512,0.403207 h -0.481726 v -1.738033 l -0.456261,0.0085 v 1.729545 h -0.483848 v -1.738034 l -0.45626,0.0085 v 1.729545 h -0.48597 v -2.143362 h 0.48597 v 0.07852 q 0.169772,-0.02758 0.337421,-0.05518 0.205847,-0.03183 0.341664,-0.03183 0.167649,0 0.216459,0.09549 0.17826,-0.02758 0.356519,-0.0573 0.235558,-0.0382 0.360764,-0.0382 0.265268,0 0.265268,0.261023 z m 1.799579,-2.143362 -0.53691,2.115774 -0.20584,0.810658 h -0.496584 l 0.222825,-0.800048 -0.543268,-2.126384 h 0.498703 l 0.282244,1.4091 0.28225,-1.4091 z m 2.48291,1.878094 q 0,0.265268 -0.26952,0.265268 h -0.81702 q -0.26951,0 -0.26951,-0.265268 v -0.460504 h 0.46475 v 0.360763 h 0.42655 v -0.339543 l -0.74487,-0.439282 q -0.14643,-0.087 -0.14643,-0.233435 V 51.89345 q 0,-0.265267 0.27375,-0.265267 h 0.80854 q 0.26951,0 0.26951,0.265267 v 0.430795 h -0.4605 v -0.331054 h -0.42655 v 0.309832 l 0.74275,0.435039 q 0.14855,0.08488 0.14855,0.23768 z m 0.834004,-2.185805 h -0.485974 v -0.500825 h 0.485974 z m -0.004,2.451073 h -0.477484 v -2.143362 h 0.477484 z m 1.28602,0 h -0.53903 q -0.2695,0 -0.2695,-0.265268 V 52.042 h -0.2292 v -0.413817 h 0.2292 v -0.581466 h 0.48384 v 0.581466 h 0.31196 V 52.042 h -0.31196 v 1.315728 h 0.32469 z m 1.65527,-0.265268 q 0,0.265268 -0.27376,0.265268 h -0.83825 q -0.27374,0 -0.27374,-0.265268 V 51.89345 q 0,-0.265267 0.27374,-0.265267 h 0.83825 q 0.27376,0 0.27376,0.265267 v 0.787314 l -0.13373,0.133697 h -0.78732 v 0.600565 h 0.45626 v -0.35652 h 0.46475 z m -0.46475,-1.008017 v -0.513558 h -0.45626 v 0.513558 z"
         id="text3"
         style="font-weight:bold;font-stretch:condensed;font-size:3.175px;font-family:'Agency FB';-inkscape-font-specification:'Agency FB, Bold Condensed';fill:#070503;stroke-width:4.10659;stroke-linecap:round;stroke-linejoin:bevel;stroke-dasharray:11.2178, 11.2178;paint-order:stroke fill markers"
         aria-label="Welcome to my site" />
      <path
         d="m 50.088747,40.281979 h -0.36587 v -1.088306 h -0.491442 v 1.088306 H 48.868666 V 37.85577 h 0.362769 v 0.999939 h 0.491442 V 37.85577 h 0.36587 z m 1.282092,-0.193787 q 0,0.193787 -0.199988,0.193787 h -0.612366 q -0.199987,0 -0.199987,-0.193787 v -1.178223 q 0,-0.193786 0.199987,-0.193786 h 0.612366 q 0.199988,0 0.199988,0.193786 v 0.575159 l -0.09767,0.09767 h -0.575158 v 0.438733 h 0.333313 V 39.76108 h 0.339514 z m -0.339514,-0.736389 v -0.375171 h -0.333313 v 0.375171 z m 1.657263,-0.63562 -0.392224,1.545642 -0.150379,0.592212 h -0.362768 l 0.16278,-0.584461 -0.396875,-1.553393 h 0.364319 l 0.206189,1.029394 0.206189,-1.029394 z m 0.550354,1.193725 -0.181385,0.623218 h -0.235644 l 0.04496,-0.623218 z m 2.590539,0.372071 h -0.351916 v -1.26969 l -0.333313,0.0062 v 1.263489 h -0.353467 v -1.26969 l -0.333313,0.0062 v 1.263489 h -0.355017 v -1.565796 h 0.355017 v 0.05736 q 0.124023,-0.02015 0.246497,-0.04031 0.150378,-0.02325 0.249597,-0.02325 0.122473,0 0.15813,0.06976 0.130224,-0.02015 0.260449,-0.04186 0.172082,-0.02791 0.26355,-0.02791 0.193786,0 0.193786,0.190686 z m 1.314649,-1.565796 -0.392224,1.545642 -0.150379,0.592212 h -0.362768 l 0.162781,-0.584461 -0.396875,-1.553393 h 0.364318 l 0.206189,1.029394 0.206189,-1.029394 z m 1.874304,1.565796 h -0.356567 v -1.26969 l -0.333313,0.0062 v 1.263489 h -0.355017 v -1.565796 h 0.355017 v 0.05736 q 0.124023,-0.02015 0.246496,-0.03876 0.151929,-0.0248 0.249598,-0.0248 0.193786,0 0.193786,0.190686 z m 1.263488,0 h -0.339514 v -0.05426 q -0.120923,0.0186 -0.241846,0.03721 -0.15813,0.02325 -0.240295,0.02325 -0.193787,0 -0.193787,-0.190686 v -0.564307 q 0,-0.193787 0.199988,-0.193787 h 0.479041 v -0.359667 h -0.339515 v 0.223242 h -0.32091 v -0.293006 q 0,-0.193786 0.199988,-0.193786 h 0.599963 q 0.196887,0 0.196887,0.193786 z m -0.336413,-0.282154 v -0.420129 h -0.339515 v 0.432532 z m 2.317688,0.282154 H 61.91128 v -1.26969 l -0.333313,0.0062 v 1.263489 H 61.2245 v -1.26969 l -0.333313,0.0062 v 1.263489 H 60.53617 v -1.565796 h 0.355017 v 0.05736 q 0.124024,-0.02015 0.246497,-0.04031 0.150378,-0.02325 0.249597,-0.02325 0.122473,0 0.15813,0.06976 0.130225,-0.02015 0.260449,-0.04186 0.172083,-0.02791 0.26355,-0.02791 0.193787,0 0.193787,0.190686 z m 1.266589,-0.193787 q 0,0.193787 -0.199988,0.193787 h -0.612365 q -0.199988,0 -0.199988,-0.193787 v -1.178223 q 0,-0.193786 0.199988,-0.193786 h 0.612365 q 0.199988,0 0.199988,0.193786 v 0.575159 l -0.09767,0.09767 h -0.575159 v 0.438733 H 63.19027 V 39.76108 h 0.339514 z m -0.339514,-0.736389 v -0.375171 h -0.333313 v 0.375171 z M 64.802577,38.49139 H 64.44756 v -0.365869 h 0.355017 z m -0.0031,1.790589 h -0.348815 v -1.565796 h 0.348815 z m 1.247986,-0.193787 q 0,0.193787 -0.196888,0.193787 h -0.596862 q -0.196888,0 -0.196888,-0.193787 v -0.336414 h 0.339515 v 0.26355 h 0.311609 v -0.248047 l -0.544153,-0.32091 q -0.106971,-0.06356 -0.106971,-0.170533 v -0.365869 q 0,-0.193786 0.199988,-0.193786 h 0.590662 q 0.196887,0 0.196887,0.193786 v 0.31471 H 65.707949 V 38.982833 H 65.39634 v 0.226343 l 0.542602,0.31781 q 0.108521,0.06201 0.108521,0.173633 z"
         id="text59"
         style="font-weight:bold;font-stretch:condensed;font-size:3.175px;font-family:'Agency FB';-inkscape-font-specification:'Agency FB, Bold Condensed';fill:#d8d9de;fill-opacity:1;stroke-width:0.3;stroke-linecap:round;stroke-linejoin:bevel;paint-order:stroke fill markers"
         aria-label="Hey, my name is"
         inkscape:export-filename="splash.svg"
         inkscape:export-xdpi="96"
         inkscape:export-ydpi="96" />
    </g>
  </g>
</svg>
